<svg id="svg" version="1.1" xmlns="http://www.w3.org/2000/svg" style="display: block;" viewBox="0 0 2000 2000"><path d="M0,0 L2000,0 L2000,2000 L0,2000 Z " transform="translate(0,0)" style="fill: #FED800;"/><path d="M0,0 L2000,0 L2000,2000 L0,2000 Z M967,39 L929,41 L887,45 L838,52 L797,60 L755,70 L720,80 L680,93 L643,107 L608,122 L580,135 L554,148 L532,160 L506,175 L482,190 L464,202 L448,213 L430,226 L409,242 L393,255 L382,264 L368,276 L356,287 L348,294 L333,308 L301,340 L294,348 L279,364 L270,375 L261,385 L250,399 L238,414 L224,433 L211,451 L191,481 L179,500 L165,524 L155,542 L141,569 L127,597 L111,634 L96,673 L83,711 L71,753 L61,794 L52,841 L46,883 L42,923 L40,956 L39,990 L39,1007 L40,1046 L43,1090 L48,1133 L54,1171 L62,1211 L74,1259 L83,1289 L95,1325 L109,1362 L122,1392 L135,1420 L151,1452 L164,1475 L179,1501 L193,1523 L201,1535 L214,1554 L227,1572 L241,1590 L252,1604 L261,1615 L272,1628 L281,1638 L288,1646 L300,1659 L315,1675 L335,1695 L343,1702 L351,1710 L359,1717 L369,1726 L380,1735 L394,1747 L408,1758 L426,1772 L444,1785 L467,1801 L489,1815 L517,1832 L542,1846 L571,1861 L595,1873 L629,1888 L670,1904 L711,1918 L760,1932 L803,1942 L846,1950 L890,1956 L934,1960 L978,1962 L1025,1962 L1069,1960 L1112,1956 L1149,1951 L1194,1943 L1234,1934 L1271,1924 L1312,1911 L1348,1898 L1377,1886 L1404,1874 L1433,1860 L1453,1850 L1476,1837 L1500,1823 L1524,1808 L1552,1789 L1570,1776 L1591,1760 L1605,1749 L1618,1738 L1629,1729 L1640,1719 L1648,1712 L1663,1698 L1670,1691 L1678,1684 L1693,1669 L1700,1661 L1709,1652 L1716,1644 L1726,1633 L1735,1622 L1747,1608 L1758,1594 L1772,1576 L1785,1558 L1801,1535 L1817,1510 L1834,1482 L1850,1453 L1867,1420 L1880,1392 L1896,1354 L1907,1324 L1919,1289 L1931,1247 L1940,1210 L1948,1170 L1955,1124 L1959,1087 L1961,1061 L1962,1041 L1962,958 L1959,913 L1954,869 L1947,825 L1938,782 L1929,746 L1917,706 L1903,665 L1889,630 L1875,598 L1859,565 L1846,540 L1833,517 L1816,489 L1803,469 L1788,447 L1775,429 L1762,412 L1750,397 L1741,386 L1730,373 L1718,359 L1702,342 L1690,329 L1664,303 L1656,296 L1640,281 L1629,272 L1618,262 L1604,251 L1592,241 L1576,229 L1558,216 L1538,202 L1518,189 L1497,176 L1473,162 L1449,149 L1426,137 L1392,121 L1356,106 L1327,95 L1292,83 L1243,69 L1205,60 L1163,52 L1131,47 L1085,42 L1058,40 L1036,39 Z " transform="translate(0,0)" style="fill: #000000;"/><path d="M0,0 L5,2 L25,17 L44,31 L63,45 L82,59 L101,73 L120,87 L139,101 L158,115 L177,129 L196,143 L215,157 L222,162 L236,192 L251,228 L264,263 L278,306 L290,350 L299,391 L305,424 L311,465 L315,507 L317,539 L317,622 L315,656 L311,697 L305,739 L297,782 L287,824 L277,860 L264,900 L249,940 L237,968 L226,992 L212,1021 L197,1049 L183,1073 L169,1096 L149,1126 L137,1143 L123,1162 L112,1176 L99,1192 L90,1203 L77,1218 L65,1231 L58,1239 L49,1248 L42,1256 L27,1271 L19,1278 L9,1288 L1,1295 L-11,1306 L-22,1315 L-37,1328 L-50,1338 L-68,1352 L-86,1365 L-103,1377 L-129,1394 L-155,1410 L-178,1423 L-202,1436 L-234,1452 L-263,1465 L-300,1480 L-336,1493 L-374,1505 L-415,1516 L-456,1525 L-496,1532 L-501,1532 L-509,1525 L-526,1512 L-542,1499 L-555,1489 L-573,1475 L-587,1464 L-603,1452 L-600,1450 L-587,1445 L-578,1438 L-571,1427 L-567,1415 L-566,1276 L-489,1275 L-477,1272 L-467,1266 L-460,1259 L-453,1245 L-452,1240 L-452,1135 L-456,1123 L-464,1112 L-475,1105 L-483,1102 L-487,1101 L-566,1100 L-566,1059 L-534,1051 L-501,1040 L-475,1029 L-449,1016 L-422,1000 L-406,989 L-385,973 L-372,962 L-360,951 L-346,938 L-339,930 L-328,918 L-317,904 L-307,891 L-296,875 L-283,854 L-269,828 L-257,801 L-246,771 L-238,742 L-232,713 L-228,685 L-226,653 L-226,631 L-227,607 L-231,572 L-236,546 L-243,519 L-253,489 L-264,463 L-275,440 L-287,419 L-297,403 L-291,396 L-173,278 L-172,278 L-171,296 L-168,308 L-162,319 L-152,328 L-141,333 L-137,334 L-32,334 L-22,331 L-13,326 L-8,322 L-2,313 L2,304 L3,299 L3,12 L0,3 Z " transform="translate(1645,419)" style="fill: #E4C200;"/><path d="M0,0 L275,0 L275,93 L160,94 L249,183 L256,177 L330,103 L334,105 L396,167 L395,171 L317,249 L319,253 L382,316 L387,314 L402,303 L422,290 L440,280 L456,272 L473,264 L500,254 L527,246 L539,243 L569,238 L596,235 L641,235 L658,236 L688,240 L707,244 L723,248 L749,256 L773,265 L802,279 L822,290 L846,306 L857,314 L861,312 L1079,94 L963,93 L963,0 L1239,0 L1239,276 L1146,276 L1145,160 L925,380 L931,389 L939,399 L952,419 L963,438 L971,454 L980,473 L990,500 L997,523 L1003,549 L1007,575 L1008,583 L1009,603 L1009,643 L1008,660 L1003,694 L998,716 L989,747 L981,768 L973,786 L965,802 L954,822 L938,846 L926,862 L914,876 L905,886 L897,895 L889,902 L880,911 L869,920 L857,930 L840,942 L823,953 L802,965 L775,978 L749,988 L716,998 L692,1003 L675,1006 L668,1006 L668,1124 L783,1124 L783,1216 L668,1216 L668,1392 L575,1392 L575,1216 L460,1216 L460,1123 L575,1123 L575,1006 L556,1004 L520,996 L484,984 L460,974 L436,962 L419,952 L395,936 L382,926 L369,915 L361,908 L349,897 L340,888 L333,880 L324,870 L313,856 L300,838 L287,817 L277,799 L265,774 L254,745 L246,717 L241,696 L236,664 L235,650 L235,590 L239,558 L245,530 L252,505 L262,477 L273,453 L285,430 L298,409 L310,392 L316,384 L314,380 L251,317 L247,318 L169,396 L165,395 L102,332 L108,325 L182,251 L180,247 L94,161 L93,276 L0,276 Z " transform="translate(369,437)" style="fill: #7904A9;"/><path d="M0,0 L287,0 L300,4 L310,11 L317,19 L322,30 L324,37 L324,105 L330,103 L345,103 L355,106 L364,111 L376,122 L434,180 L441,191 L444,200 L444,218 L440,230 L434,238 L425,248 L383,290 L385,294 L394,303 L405,297 L422,287 L447,274 L473,263 L501,253 L535,244 L561,239 L597,235 L634,234 L660,235 L689,238 L718,243 L750,251 L785,263 L808,273 L825,281 L848,294 L859,301 L863,299 L985,177 L966,176 L953,172 L944,166 L937,159 L931,148 L929,140 L929,35 L933,23 L941,12 L949,6 L960,1 L964,0 L1251,0 L1261,3 L1270,8 L1276,13 L1282,22 L1286,31 L1287,35 L1287,322 L1284,332 L1279,341 L1274,347 L1265,353 L1255,357 L1251,358 L1146,358 L1135,354 L1126,348 L1118,339 L1113,328 L1111,319 L1110,302 L987,425 L991,433 L1001,449 L1014,473 L1025,497 L1036,526 L1045,556 L1051,584 L1055,610 L1057,630 L1058,654 L1058,676 L1056,708 L1052,736 L1046,765 L1038,794 L1029,819 L1019,842 L1010,861 L997,884 L984,904 L971,922 L958,938 L946,952 L939,959 L932,967 L919,979 L907,990 L893,1001 L873,1016 L856,1027 L837,1038 L814,1050 L792,1060 L765,1070 L738,1078 L721,1082 L717,1082 L717,1123 L796,1123 L806,1126 L816,1132 L821,1136 L828,1146 L832,1158 L832,1263 L829,1273 L823,1283 L815,1291 L803,1297 L794,1299 L717,1299 L717,1438 L713,1450 L706,1461 L696,1469 L683,1474 L677,1475 L582,1475 L568,1472 L559,1467 L550,1459 L544,1449 L541,1439 L541,1299 L462,1299 L452,1296 L442,1290 L437,1286 L430,1276 L426,1264 L426,1158 L430,1146 L437,1136 L447,1128 L457,1124 L462,1123 L541,1123 L541,1082 L532,1081 L502,1073 L476,1064 L450,1053 L420,1038 L400,1026 L388,1018 L374,1008 L361,998 L348,987 L338,978 L328,969 L315,956 L308,948 L295,933 L280,913 L271,900 L259,881 L249,863 L237,839 L226,812 L216,782 L209,754 L203,719 L200,686 L200,640 L202,616 L206,587 L212,559 L221,528 L231,501 L240,481 L253,455 L265,435 L268,431 L267,427 L257,417 L253,419 L202,470 L192,476 L180,479 L167,479 L154,474 L143,466 L80,403 L73,393 L69,382 L69,363 L70,359 L0,358 L-13,353 L-22,346 L-29,337 L-33,328 L-35,316 L-35,41 L-32,27 L-27,18 L-19,9 L-9,3 Z M7,41 L7,317 L100,317 L101,202 L189,290 L187,294 L109,372 L115,379 L173,437 L177,436 L255,358 L259,359 L323,423 L321,428 L311,441 L300,458 L287,480 L275,504 L264,531 L255,559 L249,585 L245,606 L242,631 L242,691 L244,711 L249,742 L257,773 L266,800 L277,826 L288,848 L303,873 L317,893 L328,907 L341,922 L356,938 L364,946 L372,953 L386,965 L406,980 L423,991 L438,1000 L465,1014 L488,1024 L524,1036 L549,1042 L563,1045 L582,1047 L582,1164 L467,1164 L467,1257 L582,1257 L582,1433 L675,1433 L675,1257 L790,1257 L790,1165 L675,1165 L675,1047 L682,1047 L710,1042 L730,1037 L762,1027 L786,1017 L811,1005 L832,993 L844,985 L861,973 L871,965 L882,956 L895,944 L902,937 L907,933 L914,925 L925,913 L936,899 L946,886 L959,866 L971,845 L979,829 L986,814 L997,785 L1007,750 L1012,723 L1015,701 L1016,684 L1016,644 L1015,624 L1011,595 L1005,568 L998,544 L989,519 L980,499 L972,483 L964,468 L952,449 L940,432 L932,422 L938,415 L1152,201 L1153,317 L1246,317 L1246,41 L970,41 L970,134 L1086,135 L866,355 L861,353 L846,342 L827,330 L805,318 L780,306 L756,297 L724,287 L695,281 L665,277 L648,276 L603,276 L576,279 L558,282 L538,286 L510,294 L485,303 L465,312 L449,320 L432,329 L412,342 L398,352 L391,357 L387,355 L324,292 L326,288 L403,211 L402,207 L339,144 L335,146 L257,224 L250,218 L167,135 L282,134 L282,41 Z " transform="translate(362,396)" style="fill: #FEFEFD;"/><path d="M0,0 L60,0 L82,3 L107,9 L134,17 L148,23 L156,26 L175,36 L187,43 L209,58 L222,69 L236,81 L253,98 L264,112 L272,122 L282,137 L291,152 L304,179 L309,192 L313,202 L318,219 L324,248 L326,266 L327,281 L327,312 L323,347 L318,372 L313,388 L309,400 L304,411 L296,429 L290,440 L280,457 L270,471 L260,484 L251,494 L244,502 L230,516 L219,525 L205,536 L190,546 L177,554 L157,564 L147,569 L128,576 L100,584 L76,589 L64,591 L48,592 L13,592 L-14,589 L-36,585 L-65,576 L-84,569 L-107,558 L-128,546 L-146,533 L-160,522 L-176,507 L-188,495 L-197,484 L-209,469 L-219,454 L-231,433 L-242,410 L-252,382 L-259,354 L-263,327 L-264,314 L-264,275 L-261,249 L-256,223 L-249,199 L-244,188 L-240,177 L-232,160 L-228,152 L-214,129 L-204,116 L-193,102 L-178,86 L-168,76 L-157,67 L-145,57 L-121,41 L-97,28 L-86,23 L-68,16 L-46,9 L-32,6 L-21,3 Z " transform="translate(960,762)" style="fill: #F4A9B8;"/><path d="M0,0 L579,0 L576,17 L571,33 L567,45 L562,56 L554,74 L548,85 L538,102 L528,116 L518,129 L509,139 L502,147 L488,161 L477,170 L463,181 L448,191 L435,199 L415,209 L405,214 L386,221 L358,229 L334,234 L322,236 L306,237 L271,237 L244,234 L222,230 L193,221 L174,214 L151,203 L130,191 L112,178 L98,167 L82,152 L70,140 L61,129 L49,114 L39,99 L27,78 L16,55 L6,27 L0,3 Z " transform="translate(702,1117)" style="fill: #F4A9B8;"/><path d="M0,0 L580,0 L582,11 L584,29 L585,44 L585,75 L581,110 L579,118 L0,118 L-1,117 L-5,90 L-6,77 L-6,38 L-3,12 L-1,1 Z " transform="translate(702,999)" style="fill: #FEFEFE;"/><path d="M0,0 L60,0 L82,3 L107,9 L134,17 L148,23 L156,26 L175,36 L187,43 L209,58 L222,69 L236,81 L253,98 L264,112 L268,118 L-205,118 L-199,109 L-188,97 L-181,89 L-168,76 L-157,67 L-145,57 L-121,41 L-97,28 L-86,23 L-68,16 L-46,9 L-32,6 L-21,3 Z " transform="translate(960,762)" style="fill: #5BCDF9;"/><path d="M0,0 L471,0 L465,9 L455,20 L448,28 L434,42 L423,51 L409,62 L394,72 L381,80 L361,90 L351,95 L332,102 L304,110 L280,115 L268,117 L252,118 L217,118 L190,115 L168,111 L139,102 L120,95 L97,84 L76,72 L58,59 L44,48 L28,33 L16,21 L7,10 L0,1 Z " transform="translate(756,1236)" style="fill: #5BCDF9;"/></svg>