<?xml version="1.0" standalone="no"?>
<!DOCTYPE svg PUBLIC "-//W3C//DTD SVG 20010904//EN"
 "http://www.w3.org/TR/2001/REC-SVG-20010904/DTD/svg10.dtd">
<svg version="1.0" xmlns="http://www.w3.org/2000/svg"
 width="2000.000000pt" height="2000.000000pt" viewBox="0 0 2000.000000 2000.000000"
 preserveAspectRatio="xMidYMid meet">
<metadata>
Created by potrace 1.15, written by Peter Selinger 2001-2017
</metadata>
<g transform="translate(0.000000,2000.000000) scale(0.100000,-0.100000)"
fill="#000000" stroke="none">
<path d="M0 10000 l0 -10000 10000 0 10000 0 0 10000 0 10000 -10000 0 -10000
0 0 -10000z m7371 8420 c171 -57 285 -127 401 -247 31 -32 145 -188 253 -348
108 -159 213 -312 232 -340 19 -27 64 -93 99 -145 35 -52 127 -187 205 -300
77 -113 174 -254 214 -315 41 -60 87 -128 103 -150 15 -22 80 -116 143 -210
63 -93 169 -249 234 -345 66 -96 153 -225 195 -286 130 -191 441 -647 469
-687 14 -21 80 -118 147 -215 66 -97 169 -249 229 -337 60 -88 164 -241 232
-340 67 -99 153 -225 191 -280 102 -150 240 -353 497 -730 127 -187 239 -351
248 -365 10 -14 51 -74 92 -135 41 -60 138 -202 216 -315 77 -113 171 -250
207 -305 37 -55 99 -145 137 -200 38 -55 105 -154 150 -220 100 -149 287 -422
391 -575 l79 -115 95 -7 c97 -8 489 -12 840 -8 185 2 199 1 262 -23 174 -63
317 -190 394 -351 42 -85 47 -105 52 -183 l5 -88 86 -55 c191 -122 405 -381
544 -657 54 -108 118 -293 132 -379 6 -36 18 -52 96 -124 160 -147 292 -318
387 -505 130 -255 167 -346 272 -690 10 -33 26 -107 35 -164 9 -57 20 -112 25
-122 5 -9 32 -34 60 -54 66 -48 260 -253 317 -335 25 -36 63 -87 83 -115 121
-162 227 -424 237 -590 12 -206 -31 -349 -203 -675 -51 -98 -94 -182 -94 -185
0 -6 184 -280 354 -528 203 -294 243 -407 239 -667 -1 -142 -27 -248 -87 -369
-56 -109 -119 -194 -198 -263 -127 -110 -183 -142 -331 -189 -86 -27 -103 -29
-259 -29 -153 0 -174 2 -250 26 -214 68 -392 205 -523 404 -27 41 -69 103 -93
138 l-44 63 -68 -63 c-168 -159 -239 -219 -499 -426 -377 -300 -813 -566
-1061 -647 -117 -38 -135 -50 -195 -134 -53 -76 -196 -218 -285 -283 -51 -38
-152 -95 -335 -189 -133 -68 -197 -97 -395 -174 -325 -128 -395 -167 -491
-269 -38 -41 -87 -101 -109 -133 -55 -83 -132 -166 -186 -202 -110 -72 -201
-88 -564 -96 -107 -3 -212 -7 -233 -9 -52 -6 -684 11 -917 24 -566 31 -1054
100 -1392 195 -48 14 -93 25 -100 25 -29 -1 -438 129 -568 180 -41 16 -111 44
-155 61 -44 17 -114 44 -155 59 -240 90 -276 109 -348 184 -80 83 -102 143
-102 275 0 139 15 176 113 278 44 46 114 109 156 140 42 32 99 78 127 103 28
25 104 92 170 150 65 58 155 139 199 180 45 41 148 136 230 210 435 394 632
585 846 825 352 392 504 642 620 1015 46 146 47 194 11 341 -67 267 -86 490
-79 909 3 173 10 360 16 415 40 351 72 532 157 870 53 211 174 586 261 805 14
36 36 94 50 130 13 36 44 110 69 165 74 165 101 227 119 277 17 50 54 87 320
325 171 152 411 428 523 602 l41 63 -50 72 c-28 39 -98 141 -156 226 -57 85
-141 209 -187 275 -45 66 -138 203 -207 305 -373 548 -489 717 -506 739 l-20
25 -46 -31 c-25 -18 -58 -40 -74 -51 -15 -11 -80 -53 -143 -94 -291 -189 -389
-253 -446 -291 l-61 -41 66 -101 c35 -55 116 -179 179 -275 63 -96 153 -233
200 -305 47 -71 113 -173 147 -225 134 -203 164 -293 172 -505 8 -227 -19
-339 -124 -516 -78 -133 -168 -215 -403 -370 -113 -75 -225 -148 -250 -162
-25 -15 -63 -40 -85 -56 -22 -16 -87 -59 -145 -97 -185 -119 -622 -404 -665
-434 -33 -22 -272 -178 -346 -226 -50 -32 -107 -69 -274 -178 -60 -40 -155
-102 -210 -138 -95 -62 -347 -227 -555 -363 -52 -34 -156 -101 -230 -150 -163
-107 -296 -194 -537 -351 -99 -65 -207 -136 -240 -157 -32 -20 -105 -68 -163
-107 -147 -96 -288 -184 -335 -208 -68 -34 -215 -72 -305 -78 -264 -19 -503
64 -685 238 -103 98 -86 74 -578 828 -41 63 -141 216 -222 340 -170 259 -226
344 -320 490 -38 58 -123 188 -190 290 -67 102 -153 232 -190 290 -38 58 -119
182 -180 275 -61 94 -163 249 -225 345 -63 96 -170 261 -238 365 -159 241
-249 379 -347 530 -84 128 -254 388 -341 520 -72 110 -117 204 -149 309 -24
79 -27 106 -28 235 0 126 3 159 25 242 27 98 69 192 120 266 57 84 199 222
277 270 76 48 269 174 326 213 17 11 86 57 155 102 283 184 459 299 695 453
324 212 478 313 550 360 251 163 330 219 329 229 -1 11 -51 91 -209 331 -80
123 -297 454 -382 585 -76 118 -109 185 -139 287 -22 77 -26 107 -26 238 -1
133 2 161 26 250 56 210 207 409 411 540 106 69 247 161 475 310 91 59 208
136 260 170 351 229 557 364 745 487 184 120 386 252 530 346 188 122 330 215
515 337 102 67 208 136 236 153 66 42 80 58 94 112 17 65 91 206 144 277 47
63 121 130 211 195 68 48 84 56 205 99 l105 38 169 0 c161 1 172 0 257 -29z"/>
<path d="M7024 18201 c-239 -38 -444 -216 -507 -441 -8 -30 -18 -71 -21 -91
-7 -41 35 -11 -841 -583 -209 -136 -609 -398 -890 -581 -280 -184 -681 -445
-890 -582 -309 -201 -394 -262 -455 -323 -121 -121 -177 -246 -187 -420 -5
-89 -2 -118 16 -188 28 -107 55 -159 193 -370 62 -94 196 -299 298 -455 101
-155 224 -342 272 -415 l87 -133 -42 -29 c-23 -16 -159 -106 -302 -199 -143
-94 -492 -321 -775 -506 -1023 -669 -1178 -771 -1223 -805 -97 -77 -178 -196
-223 -330 -28 -84 -26 -272 3 -367 30 -93 60 -146 276 -476 100 -152 326 -498
502 -767 370 -566 864 -1322 1395 -2135 205 -313 432 -660 503 -770 150 -230
189 -279 272 -345 114 -90 219 -128 375 -137 181 -10 267 23 553 211 316 207
550 360 817 534 146 95 495 323 775 507 422 276 1278 835 1630 1065 46 30 212
138 367 239 156 101 308 204 338 228 107 87 175 187 222 329 18 55 22 92 22
179 0 119 -17 199 -62 290 -21 43 -312 493 -691 1070 -87 132 -108 172 -99
180 7 7 139 94 293 194 154 100 415 270 579 378 l300 196 18 -23 c10 -13 152
-219 315 -459 163 -240 460 -676 660 -969 l364 -533 -93 -136 c-199 -291 -427
-551 -660 -755 -82 -72 -162 -149 -178 -172 -36 -53 -164 -335 -237 -521 -216
-553 -352 -1057 -407 -1510 -35 -277 -40 -363 -40 -645 0 -372 17 -531 82
-781 33 -126 37 -210 13 -324 -38 -185 -149 -462 -268 -669 -162 -283 -638
-804 -1217 -1331 -669 -609 -682 -621 -838 -744 -148 -116 -163 -136 -163
-218 0 -110 -2 -108 545 -319 487 -187 960 -302 1495 -364 606 -70 1701 -92
2019 -40 77 12 110 39 211 172 207 272 260 310 692 483 291 118 429 183 598
283 161 96 285 212 364 343 49 80 55 86 104 104 339 118 535 219 842 433 346
242 593 445 913 750 95 90 174 163 176 161 2 -2 79 -116 172 -253 99 -146 196
-277 234 -316 155 -159 370 -228 581 -186 251 51 434 230 495 484 33 139 5
321 -68 451 -17 31 -145 223 -283 426 -139 204 -260 382 -269 397 -17 26 -16
27 29 99 72 112 243 454 278 554 38 112 41 209 8 330 -67 249 -323 602 -585
806 l-96 74 0 57 c0 100 -61 352 -135 558 -49 137 -142 335 -213 455 -96 161
-300 389 -400 446 -30 17 -42 31 -42 46 0 56 -52 261 -86 340 -105 247 -276
486 -434 608 -65 50 -185 116 -243 135 l-39 12 6 47 c17 150 17 166 -4 233
-39 128 -135 222 -270 268 -68 23 -239 27 -414 10 -147 -14 -811 17 -844 39
-8 5 -277 399 -1157 1691 -134 195 -633 929 -1111 1630 -478 701 -909 1334
-957 1405 -49 72 -388 570 -755 1108 -367 537 -725 1064 -797 1169 -213 314
-267 374 -410 447 -105 54 -265 80 -381 62z m232 -335 c34 -15 80 -46 102 -69
23 -23 104 -134 181 -247 76 -113 171 -252 211 -310 606 -888 1633 -2396 1772
-2600 99 -146 451 -663 783 -1150 332 -487 631 -925 665 -975 34 -49 316 -463
626 -918 311 -456 564 -831 562 -833 -2 -2 -71 2 -154 8 -133 10 -161 10 -240
-6 -103 -20 -154 -41 -242 -98 -35 -23 -66 -37 -71 -32 -4 5 -165 241 -358
524 -193 283 -392 576 -442 650 -51 74 -139 205 -197 290 -186 275 -1116 1638
-1279 1875 -34 50 -110 162 -170 250 -60 88 -247 363 -416 610 -254 374 -966
1417 -1199 1760 -34 50 -171 251 -305 449 -141 206 -253 381 -265 412 -26 70
-26 167 -1 234 68 179 260 257 437 176z m-685 -608 c12 -24 112 -175 223 -337
110 -162 204 -300 208 -307 5 -7 -132 -104 -407 -285 -229 -151 -545 -359
-703 -464 -479 -316 -823 -543 -1117 -737 -154 -102 -415 -274 -580 -383 -165
-109 -307 -200 -315 -202 -19 -4 -283 395 -318 481 -49 120 -16 272 79 364 24
24 305 214 624 422 319 208 767 501 995 650 1032 675 1285 840 1287 840 2 0
12 -19 24 -42z m864 -1278 c135 -198 248 -366 251 -374 4 -10 -86 -75 -303
-218 -169 -111 -425 -280 -568 -375 -307 -203 -1240 -819 -1490 -983 -96 -63
-309 -204 -473 -312 -165 -109 -304 -198 -310 -198 -9 0 -138 192 -405 602
-87 134 -94 148 -79 161 9 7 233 156 497 330 264 173 606 399 760 500 154 102
413 273 575 380 162 107 484 319 715 471 231 153 452 299 490 326 39 26 75 48
82 49 6 1 122 -161 258 -359z m549 -805 c56 -82 164 -242 241 -355 77 -112
141 -207 143 -211 1 -3 -147 -105 -330 -225 -183 -120 -476 -313 -650 -429
-175 -115 -438 -289 -585 -386 -148 -97 -414 -273 -593 -391 -896 -592 -1014
-668 -1021 -661 -7 8 -300 453 -418 636 -35 54 -62 99 -60 101 2 2 119 79 259
171 344 227 660 436 985 650 149 98 389 257 535 353 359 237 921 608 1165 770
110 72 206 131 214 130 7 -2 59 -70 115 -153z m816 -1196 c135 -199 246 -365
248 -369 2 -5 -108 -82 -245 -172 -136 -89 -384 -253 -550 -363 -167 -110
-396 -261 -511 -337 -114 -75 -400 -264 -637 -420 -236 -157 -509 -336 -605
-400 -96 -63 -276 -181 -399 -262 -123 -81 -229 -150 -236 -152 -12 -5 -484
701 -492 736 -2 10 43 45 134 105 76 49 311 204 523 343 212 140 495 327 630
416 134 88 374 247 532 351 158 105 431 284 605 399 175 116 412 272 527 348
114 76 213 138 220 138 6 -1 121 -163 256 -361z m-4505 -661 c10 -18 122 -190
248 -381 126 -192 227 -350 225 -352 -5 -5 -304 -202 -1413 -934 -1047 -690
-1158 -762 -1165 -754 -30 33 -310 472 -337 528 -27 57 -33 81 -33 135 0 114
46 215 127 277 19 15 235 159 480 318 755 493 1439 941 1638 1071 104 68 194
124 200 124 6 0 19 -15 30 -32z m5185 -338 c135 -198 246 -363 247 -367 1 -5
-183 -129 -410 -276 -226 -148 -647 -423 -934 -610 -288 -188 -688 -450 -890
-582 -203 -132 -448 -292 -546 -357 -193 -127 -248 -151 -341 -150 -112 1
-203 43 -269 126 -68 84 -310 467 -301 476 5 5 268 179 584 387 1038 685 1136
749 2165 1429 237 156 435 284 440 284 6 0 120 -162 255 -360z m-4445 -797
c49 -76 159 -243 243 -372 84 -128 151 -238 149 -245 -3 -6 -178 -126 -391
-266 -212 -140 -516 -340 -674 -445 -158 -104 -400 -264 -537 -355 -138 -90
-409 -269 -603 -397 -194 -128 -357 -231 -362 -228 -9 6 -490 741 -490 750 0
5 288 197 885 590 161 106 424 280 1090 719 159 105 355 235 435 288 80 53
150 97 156 97 6 1 50 -61 99 -136z m3611 -1058 c97 -148 269 -411 381 -583
113 -172 203 -315 200 -318 -4 -4 -69 5 -297 41 -52 8 -135 22 -185 30 -49 7
-151 23 -225 35 -74 12 -175 28 -225 36 -139 22 -271 43 -375 59 -52 8 -196
31 -320 50 -124 20 -275 43 -337 52 -62 9 -110 20 -107 24 2 4 162 110 354
236 192 125 481 314 642 420 161 106 299 191 305 190 7 -1 92 -123 189 -272z
m-2936 27 c52 -81 160 -246 240 -368 l146 -220 -191 -126 c-104 -70 -379 -251
-610 -403 -231 -153 -553 -365 -715 -472 -162 -107 -465 -307 -672 -444 -207
-137 -381 -249 -387 -249 -5 0 -114 161 -242 358 -128 196 -236 362 -240 367
-5 7 22 31 69 62 42 28 271 179 507 335 678 447 940 620 1478 975 276 183 507
332 512 332 6 0 53 -66 105 -147z m6525 -722 c94 -16 226 -36 295 -45 69 -8
143 -18 166 -21 40 -5 41 -6 95 -110 88 -172 191 -267 363 -336 80 -32 84 -33
236 -32 107 0 178 6 229 18 41 9 76 15 78 12 7 -7 -121 -128 -192 -181 -150
-113 -342 -192 -570 -236 -143 -28 -304 -22 -448 15 -113 29 -175 62 -270 143
-117 99 -154 111 -232 73 -74 -36 -106 -130 -69 -203 18 -34 82 -97 152 -150
38 -28 42 -33 27 -42 -98 -59 -228 -150 -263 -186 -24 -24 -55 -65 -68 -92
-26 -50 -58 -174 -69 -267 -12 -100 -44 -219 -75 -280 -72 -143 -326 -348
-488 -396 -133 -39 -183 -166 -101 -259 40 -46 96 -61 163 -46 139 32 367 173
515 319 87 86 120 128 185 234 l16 28 46 -36 c60 -45 83 -56 171 -85 l72 -23
-6 -71 c-15 -188 69 -375 236 -524 67 -59 208 -152 251 -166 11 -4 20 -19 24
-43 3 -20 17 -107 31 -192 21 -128 24 -174 19 -263 -18 -329 -149 -606 -447
-945 -246 -281 -460 -446 -804 -622 -113 -57 -153 -83 -170 -109 -29 -42 -31
-112 -4 -161 21 -39 89 -80 133 -80 63 0 410 187 603 325 131 94 275 225 412
374 311 338 470 611 559 960 l9 33 35 -31 c54 -49 149 -115 220 -155 65 -35
207 -76 266 -76 l30 0 13 -172 c7 -95 15 -189 17 -209 l6 -36 -99 -7 c-357
-26 -836 -228 -1208 -510 -156 -117 -393 -368 -481 -507 -81 -129 -132 -283
-114 -348 12 -46 66 -99 113 -112 85 -23 161 32 192 137 36 124 101 218 275
398 268 277 616 479 1020 593 116 32 139 35 307 40 l182 6 48 -36 c71 -52 183
-105 271 -129 81 -21 289 -31 344 -15 26 7 34 -4 288 -375 l261 -383 -188
-185 c-419 -412 -952 -813 -1338 -1007 -72 -37 -375 -151 -500 -189 -83 -25
-104 -28 -265 -28 -159 -1 -185 1 -282 26 -173 44 -320 128 -447 256 -109 110
-170 237 -206 426 -22 115 -63 164 -147 173 -90 10 -158 -48 -166 -141 -6 -77
48 -276 112 -411 90 -189 214 -319 434 -457 170 -108 383 -173 599 -185 62 -3
110 -9 108 -13 -7 -12 -185 -115 -282 -163 -50 -26 -210 -94 -355 -153 -314
-127 -408 -173 -513 -251 -88 -65 -206 -187 -292 -302 -36 -47 -69 -79 -92
-89 -32 -15 -100 -17 -576 -17 -1055 0 -1649 69 -2320 269 -190 56 -576 195
-598 215 -4 4 84 89 195 188 112 100 271 244 354 320 83 76 225 206 315 288
433 397 731 713 996 1056 135 174 261 400 348 622 21 53 41 97 44 97 3 0 18
-22 32 -48 44 -80 172 -244 250 -321 193 -191 373 -299 580 -347 l77 -17 48
24 c27 13 59 39 71 58 43 64 23 164 -40 205 -13 9 -57 25 -99 35 -190 49 -395
202 -547 411 -155 211 -319 659 -367 1005 -45 321 -22 878 55 1303 74 408 275
1040 465 1456 70 155 107 206 209 295 193 167 325 306 505 529 95 119 282 383
345 489 55 90 143 168 220 193 53 17 78 19 177 15 63 -3 192 -19 285 -35z
m-5814 -79 c30 -10 83 -21 119 -25 36 -4 119 -15 185 -26 66 -10 165 -26 220
-34 96 -15 256 -40 455 -71 52 -9 127 -20 165 -26 39 -6 77 -13 85 -15 12 -4
-279 -200 -1203 -809 -158 -105 -423 -280 -590 -390 -166 -110 -408 -270 -537
-355 -616 -405 -1039 -684 -1075 -709 -22 -15 -46 -31 -52 -35 -9 -5 -47 45
-116 151 -245 373 -388 595 -385 598 3 3 818 541 1280 846 156 103 443 292
638 421 632 417 755 498 756 498 0 0 25 -8 55 -19z m7352 -10 c17 -17 -22 -61
-76 -87 -97 -44 -174 -59 -302 -59 -106 0 -125 3 -163 23 -46 25 -132 98 -132
113 0 5 84 9 188 10 103 1 228 4 277 8 109 9 195 5 208 -8z m-5487 -286 c87
-14 202 -32 254 -40 93 -15 188 -30 380 -60 52 -8 142 -22 200 -31 58 -9 109
-20 114 -24 13 -13 -38 -84 -87 -122 -21 -17 -258 -174 -526 -349 -574 -375
-1320 -862 -2024 -1322 -1322 -865 -1532 -1000 -1584 -1024 -49 -22 -65 -25
-141 -21 -98 5 -162 32 -228 97 -34 34 -61 73 -229 331 l-65 100 203 134 c111
73 330 217 487 321 433 286 798 527 970 640 85 56 331 218 545 360 215 142
426 280 470 308 136 85 1039 688 1060 708 24 23 10 24 201 -6z m5815 -286 c97
-42 209 -146 298 -277 70 -104 148 -256 175 -340 30 -96 32 -112 11 -112 -32
0 -142 -43 -199 -77 -63 -39 -187 -130 -356 -264 -128 -101 -485 -367 -635
-474 -272 -193 -349 -268 -423 -412 -26 -51 -52 -93 -59 -93 -27 0 -212 106
-267 154 -72 62 -133 152 -141 210 -12 78 32 295 79 396 85 181 293 527 391
650 l52 66 119 33 c219 61 430 165 587 290 73 58 201 190 237 244 28 43 42 44
131 6z m-1559 -581 c40 -6 75 -13 76 -14 2 -1 -34 -65 -81 -141 -98 -160 -218
-379 -243 -441 -16 -41 -19 -44 -48 -38 -77 16 -176 89 -201 150 -7 17 -16 60
-20 97 -10 95 5 125 96 184 41 26 130 85 199 130 69 46 131 83 137 84 7 1 45
-4 85 -11z m2217 -479 c24 -10 64 -35 88 -55 52 -42 163 -173 223 -263 58 -87
189 -363 228 -481 41 -122 82 -270 75 -270 -3 0 -35 11 -72 24 -199 71 -501
53 -742 -44 -233 -94 -420 -210 -587 -365 -52 -48 -65 -55 -126 -66 -52 -10
-81 -10 -124 -1 -75 14 -106 7 -152 -37 -89 -84 -50 -229 70 -261 l40 -11 -13
-32 c-14 -32 -14 -32 -84 -31 -83 0 -141 25 -247 106 -81 63 -137 138 -167
227 -19 55 -21 78 -16 162 11 178 75 364 155 451 22 24 102 89 179 145 414
306 696 517 843 632 91 72 197 146 235 166 78 41 110 42 194 4z m407 -1329
c120 -31 276 -124 479 -286 127 -101 204 -188 314 -353 75 -110 114 -192 137
-280 27 -107 25 -113 -141 -426 -80 -152 -85 -161 -96 -144 -4 7 -6 40 -3 74
6 69 -12 115 -59 149 -26 19 -43 21 -181 21 l-152 0 -74 37 c-41 21 -90 47
-109 58 l-33 21 81 75 c93 87 142 172 148 257 7 93 -60 167 -150 167 -69 0
-128 -47 -153 -122 -12 -38 -27 -57 -72 -92 -111 -84 -172 -101 -424 -116
-181 -10 -275 -31 -370 -82 -76 -40 -154 -123 -164 -173 -27 -146 155 -245
260 -141 18 19 42 39 54 45 19 10 21 7 27 -37 8 -64 -12 -124 -45 -133 -42
-12 -132 -9 -201 5 -137 29 -252 114 -289 213 -26 69 -44 284 -35 407 15 201
61 293 230 461 313 313 722 471 1021 395z m-180 -1296 c93 -115 337 -245 487
-261 71 -7 5 78 513 -667 233 -342 381 -569 395 -605 17 -45 20 -72 17 -136
-5 -90 -26 -140 -85 -206 -83 -92 -227 -124 -348 -78 -109 41 -110 42 -635
814 -34 50 -177 261 -319 469 l-258 379 20 56 c16 43 20 80 20 163 l0 107 46
4 c112 9 106 10 147 -39z"/>
<path d="M7080 17578 c-111 -76 -82 -249 47 -278 128 -30 230 97 173 215 -39
80 -148 112 -220 63z"/>
<path d="M7366 17240 c-62 -19 -106 -83 -106 -153 0 -53 -24 -15 415 -657 186
-272 376 -549 421 -615 45 -66 124 -183 177 -260 53 -77 130 -189 171 -250
300 -443 302 -445 383 -445 25 0 60 7 79 16 63 30 98 121 71 185 -8 19 -283
428 -612 909 -329 481 -653 956 -721 1055 -71 105 -134 187 -151 197 -37 21
-91 29 -127 18z"/>
<path d="M10712 4373 c-53 -26 -77 -69 -75 -133 6 -151 5 -166 -17 -220 -29
-73 -105 -206 -208 -365 -160 -246 -359 -491 -588 -725 -83 -85 -157 -165
-163 -177 -16 -30 -14 -99 4 -132 21 -43 69 -78 114 -86 69 -11 111 17 271
181 301 310 568 658 755 986 118 209 167 370 151 501 -9 70 -52 145 -96 169
-43 22 -104 23 -148 1z"/>
<path d="M11203 3795 c-125 -54 -341 -263 -373 -359 -29 -90 49 -196 145 -196
59 0 98 24 153 92 62 79 112 124 184 171 30 19 64 47 76 61 55 71 27 181 -58
224 -51 25 -81 27 -127 7z"/>
</g>
</svg>
