<svg id="svg" version="1.1" xmlns="http://www.w3.org/2000/svg" viewBox="0 0 2000 2000" style="display: block;"><path d="M0,0 L2000,0 L2000,2000 L0,2000 Z " transform="translate(0,0)" style="fill: #FEFEFE;"/><path d="M0,0 L2000,0 L2000,2000 L0,2000 Z M945,40 L906,43 L864,48 L827,54 L788,62 L740,74 L698,87 L669,97 L631,112 L606,123 L580,135 L554,148 L532,160 L506,175 L482,190 L464,202 L448,213 L430,226 L409,242 L393,255 L382,264 L368,276 L356,287 L348,294 L333,308 L301,340 L294,348 L279,364 L270,375 L261,385 L250,399 L238,414 L224,433 L211,451 L191,481 L179,500 L165,524 L155,542 L141,569 L127,597 L111,634 L96,673 L83,711 L71,753 L61,794 L52,841 L46,883 L42,923 L40,956 L39,990 L39,1007 L40,1046 L43,1090 L48,1133 L54,1171 L62,1211 L74,1259 L83,1289 L95,1325 L109,1362 L122,1392 L135,1420 L151,1452 L164,1475 L179,1501 L193,1523 L201,1535 L214,1554 L227,1572 L241,1590 L252,1604 L261,1615 L272,1628 L281,1638 L288,1646 L300,1659 L315,1675 L335,1695 L343,1702 L351,1710 L359,1717 L369,1726 L380,1735 L394,1747 L408,1758 L426,1772 L444,1785 L467,1801 L489,1815 L517,1832 L542,1846 L571,1861 L595,1873 L629,1888 L670,1904 L711,1918 L760,1932 L803,1942 L846,1950 L890,1956 L934,1960 L978,1962 L1025,1962 L1069,1960 L1112,1956 L1149,1951 L1193,1943 L1229,1935 L1260,1927 L1296,1916 L1334,1903 L1372,1888 L1399,1876 L1433,1860 L1456,1848 L1479,1835 L1501,1822 L1520,1810 L1547,1792 L1564,1780 L1576,1771 L1593,1758 L1609,1745 L1620,1736 L1634,1724 L1646,1713 L1654,1706 L1669,1692 L1701,1660 L1708,1652 L1722,1637 L1731,1626 L1740,1616 L1748,1606 L1760,1591 L1775,1571 L1788,1553 L1814,1514 L1827,1493 L1839,1472 L1849,1454 L1864,1425 L1877,1398 L1894,1358 L1909,1318 L1922,1278 L1933,1238 L1943,1195 L1951,1151 L1956,1115 L1959,1086 L1961,1060 L1962,1036 L1962,961 L1959,914 L1954,870 L1947,826 L1939,787 L1928,743 L1917,707 L1906,674 L1893,640 L1880,610 L1868,584 L1856,559 L1840,529 L1824,502 L1809,478 L1801,466 L1788,447 L1775,429 L1762,412 L1750,397 L1741,386 L1730,373 L1718,359 L1702,342 L1690,329 L1664,303 L1656,296 L1640,281 L1629,272 L1618,262 L1604,251 L1592,241 L1576,229 L1558,216 L1538,202 L1518,189 L1497,176 L1473,162 L1449,149 L1426,137 L1392,121 L1356,106 L1327,95 L1292,83 L1243,69 L1205,60 L1163,52 L1131,47 L1085,42 L1058,40 Z " transform="translate(0,0)" style="fill: #000000;"/><path d="M0,0 L275,0 L275,92 L160,93 L249,182 L256,176 L330,102 L334,104 L396,166 L394,170 L317,247 L318,251 L382,315 L387,313 L402,302 L419,291 L440,279 L456,271 L478,261 L506,251 L527,245 L555,239 L576,236 L601,234 L641,234 L658,235 L688,239 L707,243 L737,251 L763,260 L788,271 L808,281 L828,293 L840,301 L854,311 L859,313 L1079,93 L963,92 L963,0 L1239,0 L1239,274 L1146,274 L1145,159 L925,379 L931,388 L941,401 L953,420 L964,439 L976,463 L989,496 L998,526 L1004,554 L1008,584 L1009,600 L1009,642 L1007,668 L1002,698 L994,730 L983,762 L973,785 L961,809 L947,832 L935,849 L921,867 L908,882 L881,909 L870,918 L858,928 L840,941 L818,955 L794,968 L770,979 L742,989 L718,996 L692,1002 L668,1005 L668,1123 L783,1123 L783,1215 L668,1215 L668,1391 L575,1391 L575,1215 L460,1215 L460,1123 L575,1123 L575,1005 L558,1003 L533,998 L510,992 L484,983 L458,972 L438,962 L411,946 L394,934 L381,924 L370,915 L358,904 L350,897 L341,888 L334,880 L324,869 L311,852 L298,834 L283,809 L271,786 L260,760 L249,727 L244,709 L241,695 L236,659 L235,645 L235,594 L237,575 L240,554 L245,529 L253,501 L263,474 L274,450 L285,429 L300,405 L314,386 L316,381 L251,316 L247,317 L169,395 L165,394 L103,332 L104,328 L182,250 L181,246 L148,213 L140,206 L94,160 L93,275 L0,275 Z " transform="translate(381,438)" style="fill: #1F1F1F;"/><path d="M0,0 L113,0 L161,4 L199,9 L240,16 L282,25 L320,35 L359,47 L396,60 L428,73 L458,86 L499,106 L525,120 L552,136 L570,147 L603,169 L620,181 L639,195 L654,207 L668,218 L678,227 L689,236 L703,249 L711,256 L728,272 L753,297 L760,305 L776,322 L785,333 L794,343 L803,354 L814,368 L827,385 L827,386 L714,386 L708,374 L703,368 L694,362 L684,358 L680,357 L393,357 L382,361 L374,366 L369,370 L363,379 L360,386 L-250,386 L-257,372 L-266,364 L-276,359 L-284,357 L-571,357 L-584,362 L-593,369 L-599,377 L-603,386 L-715,386 L-711,379 L-701,367 L-694,358 L-681,342 L-668,327 L-659,317 L-650,307 L-635,291 L-603,259 L-595,252 L-581,239 L-570,230 L-560,221 L-546,210 L-530,197 L-511,183 L-493,170 L-481,162 L-455,145 L-430,130 L-409,118 L-381,103 L-355,90 L-326,77 L-289,62 L-253,49 L-215,37 L-178,27 L-143,19 L-107,12 L-58,5 L-16,1 Z " transform="translate(945,40)" style="fill: #5BCDF9;"/><path d="M0,0 L565,0 L566,79 L570,91 L578,102 L589,109 L596,112 L601,113 L680,114 L681,254 L685,266 L692,276 L701,283 L710,287 L721,289 L812,289 L826,287 L838,281 L844,276 L851,265 L855,253 L856,114 L933,113 L945,110 L955,104 L962,97 L969,83 L970,78 L971,0 L1532,0 L1526,8 L1516,21 L1502,38 L1489,53 L1480,63 L1471,73 L1457,88 L1425,120 L1417,127 L1403,140 L1392,149 L1382,158 L1368,169 L1352,182 L1340,191 L1322,204 L1302,218 L1285,229 L1261,244 L1237,258 L1211,272 L1192,282 L1164,295 L1135,308 L1096,323 L1049,339 L1010,350 L968,360 L932,367 L893,373 L858,377 L816,380 L790,381 L743,381 L699,379 L655,375 L606,368 L568,361 L525,351 L483,339 L446,327 L414,315 L385,303 L352,288 L314,269 L291,256 L275,247 L249,231 L222,213 L205,201 L186,187 L172,176 L162,168 L151,159 L137,147 L123,135 L107,120 L91,105 L71,85 L64,77 L57,70 L50,62 L40,51 L31,40 L19,26 L8,12 L0,1 Z " transform="translate(235,1581)" style="fill: #5BCDF9;"/><path d="M0,0 L46,0 L63,2 L87,6 L115,14 L137,22 L164,35 L184,47 L198,57 L212,68 L225,80 L235,89 L242,97 L251,107 L261,120 L275,141 L285,159 L295,180 L304,204 L310,226 L315,251 L317,269 L317,317 L313,348 L305,380 L297,403 L286,427 L275,447 L265,462 L256,474 L248,484 L236,497 L231,503 L223,510 L211,521 L194,534 L174,547 L156,557 L134,567 L112,575 L95,580 L70,585 L44,588 L2,588 L-24,585 L-49,580 L-67,575 L-93,565 L-118,553 L-135,543 L-155,529 L-166,520 L-177,510 L-185,503 L-193,495 L-200,487 L-213,471 L-226,452 L-236,435 L-244,420 L-254,396 L-262,371 L-267,350 L-271,322 L-272,309 L-272,276 L-269,249 L-263,220 L-255,194 L-244,168 L-233,147 L-221,128 L-212,116 L-204,106 L-192,92 L-176,76 L-165,67 L-150,55 L-135,45 L-118,35 L-102,27 L-79,17 L-50,8 L-26,3 Z " transform="translate(980,765)" style="fill: #FED933;"/><path d="M0,0 L537,0 L542,12 L554,41 L569,71 L581,91 L589,103 L599,117 L609,130 L620,143 L629,153 L638,163 L650,175 L658,182 L673,195 L693,210 L712,223 L732,235 L755,247 L776,257 L802,267 L831,276 L856,282 L856,323 L777,324 L764,328 L753,336 L746,346 L743,353 L742,358 L741,385 L175,385 L165,372 L155,358 L142,339 L127,316 L112,291 L100,270 L87,246 L71,214 L58,185 L45,153 L34,123 L22,87 L10,44 L1,6 Z " transform="translate(59,1196)" style="fill: #F5A9B8;"/><path d="M0,0 L533,0 L532,8 L522,50 L512,85 L499,125 L485,162 L470,197 L456,227 L444,251 L432,273 L418,297 L407,315 L381,354 L369,371 L359,384 L358,385 L-203,385 L-204,358 L-208,346 L-215,336 L-223,330 L-231,326 L-239,324 L-318,323 L-318,282 L-286,274 L-253,263 L-227,252 L-201,239 L-174,223 L-158,212 L-137,196 L-124,185 L-112,174 L-98,161 L-91,153 L-80,141 L-69,127 L-56,110 L-46,95 L-31,70 L-19,47 L-7,19 Z " transform="translate(1409,1196)" style="fill: #F293A5;"/><path d="M0,0 L561,0 L555,8 L545,21 L531,38 L518,53 L509,63 L500,73 L486,88 L454,120 L446,127 L432,140 L421,149 L411,158 L397,169 L381,182 L369,191 L351,204 L331,218 L314,229 L290,244 L266,258 L240,272 L221,282 L193,295 L164,308 L125,323 L78,339 L39,350 L-3,360 L-39,367 L-57,370 L-61,370 L-61,368 L-65,366 L-78,356 L-92,345 L-106,334 L-120,323 L-138,309 L-152,298 L-161,291 L-159,289 L-145,287 L-133,281 L-127,276 L-120,265 L-116,253 L-115,114 L-38,113 L-26,110 L-16,104 L-9,97 L-2,83 L-1,78 Z " transform="translate(1206,1581)" style="fill: #44C0F7;"/><path d="M0,0 L609,0 L608,5 L608,110 L611,120 L617,130 L624,137 L636,143 L644,145 L664,146 L658,153 L539,272 L534,270 L519,261 L493,247 L468,236 L440,226 L417,219 L386,212 L360,208 L338,206 L301,205 L263,207 L233,211 L205,217 L176,225 L148,235 L119,248 L96,260 L73,274 L66,268 L60,262 L62,258 L109,211 L115,203 L119,195 L121,188 L121,170 L117,159 L109,148 L45,84 L35,78 L28,75 L23,74 L8,74 L2,75 L1,7 Z " transform="translate(696,426)" style="fill: #F5A9B8;"/><path d="M0,0 L114,0 L126,17 L136,31 L146,46 L160,68 L172,88 L184,109 L198,135 L214,168 L229,202 L241,232 L256,274 L269,317 L281,365 L284,380 L284,385 L-288,385 L-282,378 L-175,271 L-174,271 L-173,289 L-170,301 L-166,309 L-157,319 L-143,326 L-139,327 L-34,327 L-24,324 L-15,319 L-10,314 L-5,308 L0,297 L1,292 L1,5 Z " transform="translate(1659,426)" style="fill: #F294A6;"/><path d="M0,0 L112,0 L111,10 L111,288 L114,301 L119,310 L126,318 L136,324 L145,327 L216,328 L215,333 L215,352 L220,365 L229,376 L237,384 L237,385 L-171,385 L-166,360 L-154,312 L-142,273 L-132,244 L-116,203 L-99,165 L-77,121 L-64,98 L-52,77 L-38,55 L-20,28 L-8,11 Z " transform="translate(229,426)" style="fill: #F5A9B8;"/><path d="M0,0 L46,0 L63,2 L87,6 L115,14 L137,22 L164,35 L184,47 L198,57 L212,68 L225,80 L235,89 L242,97 L251,107 L261,120 L275,141 L285,159 L295,180 L304,204 L310,226 L315,251 L317,269 L317,317 L313,348 L305,380 L297,403 L286,427 L275,447 L265,462 L256,474 L248,484 L236,497 L231,503 L223,510 L211,521 L194,534 L174,547 L156,557 L134,567 L112,575 L95,580 L70,585 L44,588 L2,588 L-24,585 L-49,580 L-67,575 L-93,565 L-118,553 L-135,543 L-155,529 L-166,520 L-177,510 L-185,503 L-193,495 L-200,487 L-213,471 L-226,452 L-236,435 L-244,420 L-254,396 L-262,371 L-267,350 L-271,322 L-272,309 L-272,276 L-269,249 L-263,220 L-255,194 L-244,168 L-233,147 L-221,128 L-212,116 L-204,106 L-192,92 L-176,76 L-165,67 L-150,55 L-135,45 L-118,35 L-102,27 L-79,17 L-50,8 L-26,3 Z M-3,40 L-31,45 L-54,51 L-69,57 L-80,61 L-100,71 L-119,83 L-130,91 L-141,100 L-153,111 L-168,126 L-179,140 L-190,155 L-202,176 L-210,192 L-215,206 L-219,216 L-223,229 L-225,241 L-228,253 L-230,274 L-230,310 L-228,334 L-222,363 L-212,390 L-208,400 L-201,415 L-199,415 L-198,420 L-187,437 L-176,452 L-165,465 L-151,480 L-143,487 L-127,500 L-112,510 L-95,520 L-74,530 L-57,536 L-42,541 L-17,546 L-4,548 L8,549 L35,549 L50,548 L78,543 L99,538 L114,532 L124,528 L133,524 L152,514 L163,507 L180,495 L195,482 L204,474 L211,466 L220,456 L232,440 L242,424 L251,408 L259,391 L264,376 L268,366 L270,359 L273,342 L277,320 L278,308 L278,279 L277,267 L275,254 L269,226 L263,208 L255,188 L242,163 L227,141 L216,128 L209,120 L194,105 L183,96 L173,88 L153,75 L130,63 L120,58 L103,52 L71,44 L47,40 Z " transform="translate(980,765)" style="fill: #FEFEFD;"/><path d="M0,0 L22,0 L44,4 L62,11 L77,19 L89,28 L102,40 L111,50 L121,65 L129,81 L135,101 L137,121 L137,143 L133,165 L126,183 L118,198 L109,210 L97,223 L87,232 L72,242 L55,250 L40,255 L22,258 L0,258 L-20,256 L-40,250 L-56,242 L-68,234 L-82,222 L-89,215 L-100,201 L-108,187 L-113,176 L-118,161 L-121,143 L-121,121 L-119,101 L-113,81 L-105,65 L-97,53 L-86,40 L-77,31 L-64,21 L-47,11 L-28,4 L-13,1 Z " transform="translate(996,936)" style="fill: #FED933;"/><path d="M0,0 L27,0 L52,4 L75,11 L93,19 L108,27 L125,39 L136,49 L143,55 L152,66 L161,78 L170,93 L180,114 L184,125 L190,149 L192,166 L192,193 L188,218 L181,241 L173,259 L165,274 L153,291 L144,301 L137,309 L126,318 L114,327 L99,336 L80,345 L59,352 L47,355 L27,358 L0,358 L-21,355 L-44,349 L-63,341 L-82,331 L-99,319 L-110,309 L-116,304 L-123,296 L-133,283 L-144,265 L-153,246 L-160,225 L-163,213 L-166,193 L-166,166 L-163,145 L-157,122 L-149,103 L-139,84 L-127,67 L-114,52 L-103,42 L-88,31 L-73,22 L-52,12 L-41,8 L-17,2 Z M5,50 L-15,52 L-35,58 L-51,66 L-63,74 L-76,85 L-85,94 L-95,107 L-105,124 L-112,143 L-115,158 L-116,171 L-116,193 L-112,215 L-105,233 L-97,248 L-88,260 L-76,273 L-66,282 L-51,292 L-35,300 L-15,306 L5,308 L27,308 L49,304 L67,297 L82,289 L94,280 L107,268 L116,258 L126,243 L134,226 L139,211 L142,193 L142,171 L140,151 L134,131 L126,115 L118,103 L106,89 L99,82 L85,71 L71,63 L60,58 L45,53 L27,50 Z " transform="translate(991,886)" style="fill: #7904A9;"/><path d="M0,0 L114,0 L126,17 L136,31 L146,46 L160,68 L172,88 L184,109 L198,135 L206,151 L205,153 L186,139 L167,125 L148,111 L129,97 L110,83 L91,69 L72,55 L53,41 L34,27 L15,13 L4,5 L1,5 Z " transform="translate(1659,426)" style="fill: #F5A8B7;"/></svg>