<?xml version="1.0" standalone="no"?>
<!DOCTYPE svg PUBLIC "-//W3C//DTD SVG 20010904//EN" "http://www.w3.org/TR/2001/REC-SVG-20010904/DTD/svg10.dtd">
<!-- Created using Krita: http://krita.org -->
<svg xmlns="http://www.w3.org/2000/svg" 
    xmlns:xlink="http://www.w3.org/1999/xlink"
    xmlns:krita="http://krita.org/namespaces/svg/krita"
    xmlns:sodipodi="http://sodipodi.sourceforge.net/DTD/sodipodi-0.dtd"
    width="122.88pt"
    height="122.88pt"
    viewBox="0 0 122.88 122.88">
<defs/>
<g id="_x37_1-github" transform="matrix(0.259067107107375 0 0 0.26386361144029 -4.8 -6.24)" fill="none">
  <g id="group0" fill="none">
   <g id="group1" fill="none">
    <g id="group2" fill="none">
     <path id="shape0" transform="translate(17.397, 21.733)" fill="#6879d9" d="M238.572 0C106.833 0 0 107.541 0 240.206C0 346.313 68.362 436.327 163.205 468.116C175.134 470.336 179.49 462.92 179.49 456.549C179.49 450.836 179.285 435.732 179.16 415.693C112.8 430.2 98.785 383.485 98.785 383.485C87.957 355.729 72.296 348.346 72.296 348.346C50.612 333.453 73.909 333.755 73.909 333.755C97.857 335.456 110.443 358.514 110.443 358.514C131.738 395.208 166.309 384.619 179.908 378.461C182.054 362.94 188.226 352.356 195.062 346.345C142.088 340.272 86.372 319.664 86.372 227.646C86.372 201.417 95.682 179.978 110.948 163.168C108.473 157.097 100.302 132.661 113.277 99.614C113.277 99.614 133.322 93.159 178.89 124.228C197.921 118.903 218.322 116.246 238.632 116.156C258.882 116.279 279.308 118.903 298.37 124.261C343.917 93.187 363.929 99.647 363.929 99.647C376.931 132.724 368.761 157.129 366.316 163.196C381.613 180.006 390.832 201.446 390.832 227.678C390.832 319.936 335.059 340.241 281.912 346.19C290.471 353.612 298.103 368.259 298.103 390.661C298.103 422.785 297.806 448.68 297.806 456.549C297.806 462.976 302.099 470.452 314.208 468.089C408.905 436.265 477.206 346.284 477.206 240.206C477.207 107.54 370.374 0 238.572 0ZM238.572 0"/>
    </g>
   </g>
  </g>
 </g><g id="Layer_1" transform="matrix(0.259067107107375 0 0 0.26386361144029 -4.8 -6.24)" fill="none"/>
</svg>
